<svg width="493" height="208" viewBox="0 0 493 208" fill="none" xmlns="http://www.w3.org/2000/svg">
<path d="M184.301 61.3746L173.138 58.4469C170.674 57.8162 168.77 56.9355 167.414 55.8049C166.057 54.6743 165.379 53.1628 165.379 51.2706C165.379 50.0091 165.771 48.8547 166.569 47.8193C167.354 46.772 168.449 45.9508 169.83 45.3558C171.222 44.7607 172.829 44.4513 174.65 44.4513C177.613 44.4513 180.136 45.1654 182.219 46.5816C184.301 47.9978 185.599 50.0091 186.098 52.5916L198.868 50.8897C198.166 46.5459 196.607 42.9994 194.191 40.2502C191.763 37.5011 188.895 35.5136 185.587 34.2878C182.278 33.062 178.827 32.4431 175.233 32.4431C170.948 32.4431 167.045 33.2643 163.546 34.9067C160.047 36.549 157.286 38.8697 155.274 41.8569C153.251 44.8559 152.252 48.2834 152.252 52.1156C152.252 57.1616 153.727 61.0651 156.703 63.8381C159.666 66.611 163.51 68.5747 168.247 69.7053L179.6 72.6329C182.064 73.2637 184.004 74.192 185.42 75.4178C186.836 76.6436 187.55 78.3097 187.55 80.3805C187.55 82.011 187.098 83.4748 186.182 84.7244C185.265 85.9859 183.968 86.9618 182.302 87.6521C180.636 88.3542 178.66 88.6993 176.387 88.6993C172.162 88.6993 168.854 87.7116 166.462 85.7241C164.069 83.7366 162.617 81.047 162.118 77.6433L149.062 79.2499C149.562 83.7247 151.026 87.5806 153.465 90.7939C155.893 94.0072 159.071 96.4588 163.01 98.1607C166.949 99.8625 171.543 100.707 176.387 100.707C181.231 100.707 185.527 99.803 189.252 98.0179C192.965 96.2208 195.834 93.7335 197.857 90.544C199.868 87.3664 200.88 83.7842 200.88 79.8093C200.88 74.6442 199.321 70.5741 196.202 67.6107C193.084 64.6473 189.133 62.5647 184.337 61.3746H184.301Z" fill="black"/>
<path d="M251.579 45.2929V33.4752H202.022V45.2929H220.564V99.6806H233.048V45.2929H251.579Z" fill="black"/>
<path d="M302.98 36.8802C297.779 33.9168 292.054 32.4292 285.628 32.4292C279.201 32.4292 273.393 33.9168 268.228 36.8802C263.051 39.8435 258.969 43.9375 255.982 49.174C252.995 54.4104 251.495 60.0515 251.495 66.4781C251.495 72.9046 252.983 78.7242 255.982 83.925C258.981 89.1257 263.063 93.2316 268.228 96.2187C273.393 99.2059 279.261 100.705 285.628 100.705C291.995 100.705 297.779 99.2178 302.98 96.2187C308.18 93.2316 312.274 89.1257 315.274 83.925C318.261 78.7242 319.76 72.7856 319.76 66.4781C319.76 60.1705 318.261 54.4104 315.274 49.174C312.286 43.9494 308.18 39.8435 302.98 36.8802ZM304.205 77.784C302.349 81.152 299.766 83.8179 296.458 85.7815C293.149 87.7333 289.603 88.7092 285.628 88.7092C281.653 88.7092 278.023 87.7333 274.75 85.7815C271.477 83.8298 268.895 81.1639 267.002 77.784C265.11 74.416 264.17 70.5839 264.17 66.49C264.17 62.396 265.11 58.671 267.002 55.3268C268.895 51.9826 271.477 49.3406 274.75 47.3769C278.023 45.4251 281.712 44.4492 285.628 44.4492C289.543 44.4492 293.125 45.4251 296.41 47.3769C299.683 49.3287 302.265 51.9826 304.158 55.3268C306.05 58.671 306.99 62.3365 306.99 66.49C306.99 70.6434 306.062 74.416 304.205 77.784Z" fill="black"/>
<path d="M371.09 63.7395C372.792 60.7167 373.648 57.2416 373.648 53.338C373.648 49.7439 372.72 46.4235 370.864 43.353C369.007 40.2945 366.496 37.8786 363.342 36.1172C360.188 34.3559 356.761 33.4752 353.036 33.4752H324.568V99.6806H336.957V73.3913H342.253C347.228 73.3913 350.917 74.4981 353.321 76.6997C355.713 78.9133 357.034 82.1861 357.296 86.5419C357.356 87.8034 357.427 88.9459 357.487 89.9456C357.546 90.9572 357.641 92.0878 357.772 93.3493C357.891 94.5513 358.022 95.6819 358.153 96.753C358.272 97.8241 358.403 98.8 358.534 99.6806H373.006C372.185 98.4191 371.601 96.9553 371.256 95.2773C370.911 93.6111 370.578 91.3142 370.269 88.4223C370.209 87.6011 370.102 86.7799 369.983 85.9587C369.471 82.2337 368.555 79.1157 367.198 76.5926C366.163 74.6766 364.496 73.0342 362.188 71.6656C362.783 71.4157 363.366 71.142 363.925 70.8325C367.008 69.1307 369.412 66.7624 371.114 63.7395H371.09ZM336.945 62.6089V45.4H351.893C353.595 45.4 355.154 45.7809 356.57 46.5306C357.987 47.2923 359.105 48.3277 359.927 49.6487C360.736 50.9697 361.152 52.4216 361.152 53.9926C361.152 55.5635 360.748 57.0154 359.927 58.3364C359.105 59.6575 357.987 60.6929 356.57 61.4545C355.154 62.2162 353.595 62.597 351.893 62.597H336.945V62.6089Z" fill="black"/>
<path d="M448.162 33.4778H448.15C444.497 33.4778 441.176 35.5843 439.629 38.8928L424.955 70.1687C422.813 74.9648 421.016 80.0703 419.564 85.4853C418.171 80.0584 416.386 74.9529 414.172 70.1687L399.594 38.9047C398.046 35.5962 394.714 33.4659 391.06 33.4659C385.86 33.4659 381.647 37.6789 381.647 42.8796V99.6713H394.036V66.6579C394.036 61.3619 393.81 55.8755 393.381 50.1987C395.202 55.6256 397.13 60.755 399.153 65.6106L414.565 99.6594H424.681L440.093 65.6106C442.104 60.755 444.032 55.6137 445.865 50.1987C445.425 55.8755 445.211 61.3619 445.211 66.6579V99.6713H457.6V42.8796C457.6 37.6789 453.387 33.4659 448.186 33.4659L448.162 33.4778Z" fill="black"/>
<path d="M163.605 104.875H151.216V161.869C151.216 166.962 155.334 171.08 160.428 171.08H192.835V159.251H163.617V104.863L163.605 104.875Z" fill="black"/>
<path d="M227.789 104.872C224.73 104.872 221.981 106.741 220.85 109.585L196.429 171.078H209.485L214.233 158.974H241.177L245.89 171.078H259.422L234.727 109.561C233.584 106.729 230.847 104.872 227.8 104.872H227.789ZM218.529 148.001L223.087 136.374C224.98 131.459 226.551 126.639 227.824 121.902C229.026 126.639 230.538 131.459 232.359 136.374L236.893 148.001H218.529Z" fill="black"/>
<path d="M305.622 139.221C303.92 137.709 301.992 136.662 299.85 136.102C301.551 135.531 303.134 134.508 304.586 133.032C306.038 131.556 307.193 129.831 308.038 127.879C308.894 125.927 309.311 123.88 309.311 121.726C309.311 118.513 308.407 115.621 306.621 113.074C304.824 110.515 302.396 108.516 299.338 107.064C296.279 105.612 292.852 104.886 289.079 104.886H263.539V171.091H290.781C294.494 171.091 297.922 170.27 301.04 168.628C304.158 166.998 306.645 164.689 308.514 161.725C310.37 158.762 311.298 155.418 311.298 151.705C311.298 149.313 310.775 147.016 309.739 144.802C308.692 142.589 307.324 140.732 305.622 139.221ZM275.928 116.228H288.508C290.019 116.228 291.423 116.585 292.709 117.275C294.006 117.977 295.006 118.917 295.732 120.107C296.458 121.309 296.815 122.595 296.815 123.987C296.815 125.558 296.41 126.915 295.589 128.057C294.768 129.188 293.685 130.057 292.328 130.664C290.971 131.259 289.484 131.556 287.841 131.556H275.928V116.228ZM297.446 155.251C296.66 156.548 295.589 157.584 294.232 158.369C292.875 159.155 291.34 159.548 289.638 159.548H275.928V142.339H289.829C291.471 142.339 292.947 142.696 294.28 143.386C295.601 144.088 296.66 145.088 297.446 146.409C298.231 147.73 298.636 149.217 298.636 150.86C298.636 152.502 298.243 153.966 297.446 155.263V155.251Z" fill="black"/>
<path d="M362.854 139.017C359.736 136.054 355.785 133.971 350.989 132.781L339.826 129.853C337.362 129.222 335.458 128.342 334.101 127.211C332.745 126.08 332.066 124.569 332.066 122.677C332.066 121.415 332.459 120.261 333.256 119.225C334.042 118.178 335.137 117.357 336.517 116.762C337.91 116.167 339.516 115.857 341.337 115.857C344.301 115.857 346.824 116.572 348.906 117.988C350.989 119.404 352.286 121.415 352.786 123.998L365.556 122.296C364.854 117.952 363.295 114.406 360.879 111.656C358.451 108.907 355.583 106.92 352.274 105.694C348.966 104.468 345.515 103.849 341.92 103.849C337.636 103.849 333.732 104.671 330.233 106.313C326.734 107.955 323.973 110.276 321.962 113.263C319.939 116.262 318.939 119.69 318.939 123.522C318.939 128.568 320.415 132.471 323.39 135.244C326.354 138.017 330.198 139.981 334.934 141.111L346.288 144.039C348.752 144.67 350.691 145.598 352.108 146.824C353.524 148.05 354.238 149.716 354.238 151.787C354.238 153.417 353.786 154.881 352.869 156.131C351.953 157.392 350.656 158.368 348.99 159.058C347.323 159.76 345.348 160.106 343.075 160.106C338.85 160.106 335.541 159.118 333.149 157.13C330.757 155.143 329.305 152.453 328.805 149.049L315.75 150.656C316.25 155.131 317.713 158.987 320.153 162.2C322.581 165.413 325.759 167.865 329.698 169.567C333.637 171.269 338.231 172.114 343.075 172.114C347.919 172.114 352.215 171.209 355.94 169.424C359.653 167.627 362.521 165.14 364.545 161.95C366.556 158.773 367.567 155.19 367.567 151.215C367.567 146.05 366.008 141.98 362.89 139.017H362.854Z" fill="black"/>
<path fill-rule="evenodd" clip-rule="evenodd" d="M75.1194 69.0606L106.895 100.836C112.215 106.168 112.215 114.844 106.895 120.164L101.79 125.269L56.5298 80.0095C51.2099 74.6779 51.2099 66.002 56.5298 60.6823L84.7831 32.4292L98.2671 45.9131L75.1194 69.0606ZM35.9289 87.5122L41.0345 82.4067L86.2947 127.666C88.8772 130.249 90.2934 133.7 90.2934 137.33C90.2934 140.96 88.8772 144.399 86.2947 146.982L58.0413 175.235L44.5573 161.751L67.7051 138.603L35.9289 106.828C33.3464 104.245 31.9302 100.794 31.9302 97.1639C31.9302 93.5341 33.3464 90.0947 35.9289 87.5122Z" fill="black"/>
</svg>
