<svg width="746" height="208" viewBox="0 0 746 208" fill="none" xmlns="http://www.w3.org/2000/svg">
<path d="M184.301 98.6355L173.138 95.7079C170.674 95.0771 168.77 94.1964 167.414 93.0658C166.057 91.9352 165.378 90.4238 165.378 88.5315C165.378 87.27 165.771 86.1156 166.569 85.0802C167.354 84.0329 168.449 83.2118 169.83 82.6167C171.222 82.0217 172.829 81.7122 174.65 81.7122C177.613 81.7122 180.136 82.4263 182.219 83.8425C184.301 85.2587 185.599 87.27 186.098 89.8526L198.868 88.1507C198.166 83.8068 196.607 80.2603 194.191 77.5112C191.763 74.762 188.895 72.7746 185.587 71.5488C182.278 70.323 178.827 69.7041 175.233 69.7041C170.948 69.7041 167.045 70.5253 163.546 72.1676C160.047 73.81 157.286 76.1307 155.274 79.1178C153.251 82.1169 152.252 85.5444 152.252 89.3765C152.252 94.4225 153.727 98.3261 156.703 101.099C159.666 103.872 163.51 105.836 168.247 106.966L179.6 109.894C182.064 110.525 184.004 111.453 185.42 112.679C186.836 113.905 187.55 115.571 187.55 117.641C187.55 119.272 187.098 120.736 186.182 121.985C185.265 123.247 183.968 124.223 182.302 124.913C180.636 125.615 178.66 125.96 176.387 125.96C172.162 125.96 168.854 124.972 166.462 122.985C164.069 120.998 162.617 118.308 162.118 114.904L149.062 116.511C149.562 120.986 151.026 124.842 153.465 128.055C155.893 131.268 159.071 133.72 163.01 135.422C166.949 137.123 171.543 137.968 176.387 137.968C181.231 137.968 185.527 137.064 189.252 135.279C192.965 133.482 195.834 130.994 197.857 127.805C199.868 124.627 200.88 121.045 200.88 117.07C200.88 111.905 199.321 107.835 196.202 104.872C193.084 101.908 189.133 99.8256 184.337 98.6355H184.301Z" fill="black"/>
<path d="M251.59 82.5704V70.7408H202.022V82.5704H220.564V136.946H233.049V82.5704H251.59Z" fill="black"/>
<path d="M302.944 74.1551C297.743 71.1917 292.019 69.7041 285.592 69.7041C279.166 69.7041 273.358 71.1917 268.193 74.1551C263.016 77.1184 258.934 81.2124 255.946 86.4489C252.959 91.6853 251.46 97.3264 251.46 103.753C251.46 110.18 252.947 115.999 255.946 121.2C258.945 126.401 263.028 130.506 268.193 133.494C273.358 136.481 279.225 137.98 285.592 137.98C291.959 137.98 297.743 136.493 302.944 133.494C308.145 130.506 312.239 126.401 315.238 121.2C318.225 115.999 319.725 110.061 319.725 103.753C319.725 97.4454 318.225 91.6853 315.238 86.4489C312.251 81.2243 308.145 77.1184 302.944 74.1551ZM304.17 115.059C302.313 118.427 299.731 121.093 296.422 123.056C293.114 125.008 289.567 125.984 285.592 125.984C281.617 125.984 277.987 125.008 274.714 123.056C271.442 121.105 268.859 118.439 266.967 115.059C265.075 111.691 264.134 107.859 264.134 103.765C264.134 99.6709 265.075 95.9459 266.967 92.6017C268.859 89.2575 271.442 86.6155 274.714 84.6518C277.987 82.7 281.677 81.7241 285.592 81.7241C289.508 81.7241 293.09 82.7 296.375 84.6518C299.647 86.6036 302.23 89.2575 304.122 92.6017C306.015 95.9459 306.955 99.6114 306.955 103.765C306.955 107.918 306.026 111.691 304.17 115.059Z" fill="black"/>
<path d="M371.09 101.005C372.792 97.9823 373.649 94.5072 373.649 90.6036C373.649 87.0095 372.721 83.6891 370.864 80.6186C369.008 77.5601 366.496 75.1442 363.343 73.3828C360.189 71.6215 356.761 70.7408 353.036 70.7408H324.569V136.946H336.958V110.657H342.254C347.228 110.657 350.918 111.764 353.322 113.965C355.714 116.179 357.035 119.452 357.297 123.807C357.356 125.069 357.428 126.212 357.487 127.211C357.547 128.223 357.642 129.353 357.773 130.615C357.892 131.817 358.023 132.947 358.154 134.019C358.273 135.09 358.404 136.066 358.535 136.946H373.006C372.185 135.685 371.602 134.221 371.257 132.543C370.912 130.877 370.579 128.58 370.269 125.688C370.21 124.867 370.102 124.046 369.983 123.224C369.472 119.499 368.555 116.381 367.199 113.858C366.163 111.942 364.497 110.3 362.188 108.931C362.783 108.681 363.366 108.408 363.926 108.098C367.008 106.396 369.412 104.028 371.114 101.005H371.09ZM336.946 99.8745V82.6656H351.894C353.596 82.6656 355.155 83.0465 356.571 83.7962C357.987 84.5579 359.106 85.5933 359.927 86.9143C360.736 88.2353 361.153 89.6872 361.153 91.2582C361.153 92.8291 360.748 94.281 359.927 95.6021C359.106 96.9231 357.987 97.9585 356.571 98.7201C355.155 99.4818 353.596 99.8626 351.894 99.8626H336.946V99.8745Z" fill="black"/>
<path d="M448.174 70.7388H448.162C444.508 70.7388 441.188 72.8452 439.641 76.1537L424.967 107.43C422.824 112.226 421.027 117.331 419.575 122.746C418.183 117.319 416.398 112.214 414.184 107.43L399.605 76.1656C398.058 72.8571 394.726 70.7268 391.072 70.7268C385.871 70.7268 381.658 74.9398 381.658 80.1406V136.932H394.047V103.919C394.047 98.6229 393.821 93.1365 393.393 87.4597C395.214 92.8866 397.142 98.0159 399.165 102.872L414.577 136.92H424.693L440.105 102.872C442.116 98.0159 444.044 92.8747 445.877 87.4597C445.437 93.1365 445.222 98.6229 445.222 103.919V136.932H457.611V80.1406C457.611 74.9398 453.398 70.7268 448.198 70.7268L448.174 70.7388Z" fill="black"/>
<path d="M503.931 70.7388H491.542V127.733C491.542 132.826 495.66 136.944 500.753 136.944H533.16V125.115H503.943V70.7268L503.931 70.7388Z" fill="black"/>
<path d="M568.114 70.7408C565.055 70.7408 562.306 72.6093 561.175 75.4536L536.754 136.946H549.81L554.558 124.843H581.502L586.215 136.946H599.747L575.052 75.4298C573.909 72.5974 571.172 70.7408 568.125 70.7408H568.114ZM558.854 113.87L563.413 102.243C565.305 97.3277 566.876 92.5078 568.149 87.7712C569.351 92.5078 570.863 97.3277 572.684 102.243L577.218 113.87H558.854Z" fill="black"/>
<path d="M645.947 105.075C644.245 103.564 642.317 102.517 640.175 101.957C641.877 101.386 643.46 100.362 644.912 98.8867C646.364 97.411 647.518 95.6854 648.363 93.7336C649.22 91.7818 649.637 89.7348 649.637 87.5807C649.637 84.3675 648.732 81.4755 646.947 78.9287C645.15 76.37 642.722 74.3706 639.663 72.9187C636.605 71.4668 633.177 70.7408 629.405 70.7408H603.865V136.946H631.106C634.82 136.946 638.247 136.125 641.365 134.483C644.483 132.852 646.971 130.543 648.839 127.58C650.696 124.617 651.624 121.273 651.624 117.559C651.624 115.167 651.1 112.87 650.065 110.657C649.018 108.443 647.649 106.587 645.947 105.075ZM616.254 82.0825H628.833C630.345 82.0825 631.749 82.4395 633.034 83.1298C634.332 83.8319 635.331 84.7721 636.057 85.9622C636.783 87.1642 637.14 88.4495 637.14 89.8419C637.14 91.4129 636.736 92.7696 635.915 93.9121C635.093 95.0427 634.01 95.9115 632.654 96.5184C631.297 97.1135 629.809 97.411 628.167 97.411H616.254V82.0825ZM637.771 121.106C636.986 122.403 635.915 123.439 634.558 124.224C633.201 125.01 631.666 125.402 629.964 125.402H616.254V108.193H630.154C631.797 108.193 633.272 108.55 634.605 109.241C635.926 109.943 636.986 110.942 637.771 112.263C638.557 113.585 638.961 115.072 638.961 116.714C638.961 118.357 638.569 119.821 637.771 121.118V121.106Z" fill="black"/>
<path d="M703.168 104.886C700.05 101.922 696.099 99.8396 691.302 98.6495L680.139 95.7218C677.676 95.0911 675.771 94.2104 674.415 93.0798C673.058 91.9492 672.38 90.4377 672.38 88.5455C672.38 87.284 672.772 86.1296 673.57 85.0942C674.355 84.0469 675.45 83.2257 676.831 82.6307C678.223 82.0356 679.83 81.7262 681.651 81.7262C684.614 81.7262 687.137 82.4403 689.22 83.8565C691.302 85.2727 692.6 87.284 693.099 89.8665L705.869 88.1647C705.167 83.8208 703.608 80.2743 701.192 77.5251C698.764 74.776 695.896 72.7885 692.588 71.5627C689.279 70.3369 685.828 69.718 682.234 69.718C677.949 69.718 674.046 70.5392 670.547 72.1816C667.048 73.8239 664.287 76.1446 662.275 79.1318C660.252 82.1308 659.253 85.5583 659.253 89.3905C659.253 94.4365 660.728 98.34 663.704 101.113C666.667 103.886 670.511 105.85 675.248 106.98L686.601 109.908C689.065 110.539 691.005 111.467 692.421 112.693C693.837 113.918 694.551 115.585 694.551 117.655C694.551 119.286 694.099 120.75 693.183 121.999C692.266 123.261 690.969 124.237 689.303 124.927C687.637 125.629 685.661 125.974 683.388 125.974C679.163 125.974 675.855 124.986 673.463 122.999C671.07 121.012 669.618 118.322 669.119 114.918L656.063 116.525C656.563 121 658.027 124.856 660.466 128.069C662.894 131.282 666.072 133.734 670.011 135.436C673.951 137.137 678.544 137.982 683.388 137.982C688.232 137.982 692.528 137.078 696.253 135.293C699.966 133.496 702.835 131.008 704.858 127.819C706.869 124.641 707.881 121.059 707.881 117.084C707.881 111.919 706.322 107.849 703.203 104.886H703.168Z" fill="black"/>
<path fill-rule="evenodd" clip-rule="evenodd" d="M75.1202 69.0606L106.896 100.836C112.216 106.168 112.216 114.844 106.896 120.164L101.791 125.269L56.5306 80.0095C51.2108 74.6779 51.2108 66.002 56.5306 60.6822L84.784 32.4292L98.268 45.9131L75.1202 69.0606ZM35.9412 87.5072L41.0468 82.4016L86.3069 127.661C88.8894 130.244 90.3057 133.695 90.3057 137.325C90.3057 140.955 88.8894 144.394 86.3069 146.977L58.0535 175.23L44.5695 161.746L67.7173 138.598L35.9412 106.823C33.3586 104.24 31.9424 100.789 31.9424 97.1589C31.9424 93.5291 33.3586 90.0897 35.9412 87.5072Z" fill="black"/>
</svg>
