<svg width="286" height="286" viewBox="0 0 286 286" fill="none" xmlns="http://www.w3.org/2000/svg">
<rect x="0.670898" y="0.5" width="284.671" height="284.671" rx="80" fill="black"/>
<path fill-rule="evenodd" clip-rule="evenodd" d="M148.121 94.9354L191.889 138.703C199.216 146.047 199.216 157.997 191.889 165.325L184.856 172.357L122.516 110.016C115.189 102.673 115.189 90.7226 122.516 83.3951L161.432 44.4795L180.004 63.0521L148.121 94.9354ZM94.1568 120.344L101.189 113.312L163.53 175.653C167.087 179.21 169.037 183.963 169.037 188.963C169.037 193.963 167.087 198.7 163.53 202.257L124.614 241.173L106.041 222.6L137.925 190.717L94.1568 146.949C90.5996 143.392 88.6489 138.638 88.6489 133.639C88.6489 128.639 90.5996 123.902 94.1568 120.344Z" fill="white"/>
</svg>
