<svg width="286" height="285" viewBox="0 0 286 285" fill="none" xmlns="http://www.w3.org/2000/svg">
<rect x="1.1709" y="0.5" width="283.671" height="283.671" rx="79.5" fill="white"/>
<path fill-rule="evenodd" clip-rule="evenodd" d="M148.121 94.4354L191.889 138.203C199.216 145.547 199.216 157.497 191.889 164.825L184.856 171.857L122.516 109.516C115.189 102.173 115.189 90.2226 122.516 82.8951L161.432 43.9795L180.004 62.5521L148.121 94.4354ZM94.1568 119.844L101.189 112.812L163.53 175.153C167.087 178.71 169.037 183.463 169.037 188.463C169.037 193.463 167.087 198.2 163.53 201.757L124.614 240.673L106.041 222.1L137.925 190.217L94.1568 146.449C90.5996 142.892 88.6489 138.138 88.6489 133.139C88.6489 128.139 90.5996 123.402 94.1568 119.844Z" fill="black"/>
<rect x="1.1709" y="0.5" width="283.671" height="283.671" rx="79.5" stroke="black"/>
</svg>
