<svg width="286" height="285" viewBox="0 0 286 285" fill="none" xmlns="http://www.w3.org/2000/svg">
<rect x="0.841797" y="0.5" width="283.671" height="283.671" rx="141.836" fill="white"/>
<path fill-rule="evenodd" clip-rule="evenodd" d="M147.792 94.4354L191.56 138.203C198.887 145.547 198.887 157.497 191.56 164.825L184.527 171.857L122.187 109.516C114.86 102.173 114.86 90.2226 122.187 82.8951L161.103 43.9795L179.675 62.5521L147.792 94.4354ZM93.8277 119.844L100.86 112.812L163.2 175.153C166.758 178.71 168.708 183.463 168.708 188.463C168.708 193.463 166.758 198.2 163.2 201.757L124.285 240.673L105.712 222.1L137.595 190.217L93.8277 146.449C90.2705 142.892 88.3198 138.138 88.3198 133.139C88.3198 128.139 90.2705 123.402 93.8277 119.844Z" fill="black"/>
<rect x="0.841797" y="0.5" width="283.671" height="283.671" rx="141.836" stroke="black"/>
</svg>
