<svg width="286" height="286" viewBox="0 0 286 286" fill="none" xmlns="http://www.w3.org/2000/svg">
<rect x="0.341797" y="0.5" width="284.671" height="284.671" rx="142.336" fill="black"/>
<path fill-rule="evenodd" clip-rule="evenodd" d="M147.792 94.9354L191.56 138.703C198.887 146.047 198.887 157.997 191.56 165.325L184.527 172.357L122.187 110.016C114.86 102.673 114.86 90.7226 122.187 83.3951L161.103 44.4795L179.675 63.0521L147.792 94.9354ZM93.8277 120.344L100.86 113.312L163.2 175.653C166.758 179.21 168.708 183.963 168.708 188.963C168.708 193.963 166.758 198.7 163.2 202.257L124.285 241.173L105.712 222.6L137.595 190.717L93.8277 146.949C90.2705 143.392 88.3198 138.638 88.3198 133.639C88.3198 128.639 90.2705 123.902 93.8277 120.344Z" fill="white"/>
</svg>
